HIERARCHY
ROOT Hips
{
 OFFSET 0.000000 0.000000 0.000000
 CHANNELS 6 Xposition Yposition Zposition Yrotation Xrotation Zrotation
 JOINT Chest
 {
  OFFSET 0.000000 9.585900 0.002600
  CHANNELS 3 Yrotation Xrotation Zrotation
  JOINT Chest2
  {
   OFFSET 0.000000 9.601200 -0.005300
   CHANNELS 3 Yrotation Xrotation Zrotation
   JOINT Chest3
   {
    OFFSET 0.000000 9.561800 0.000000
    CHANNELS 3 Yrotation Xrotation Zrotation
    JOINT Chest4
    {
     OFFSET 0.000000 9.552100 0.000000
     CHANNELS 3 Yrotation Xrotation Zrotation
     JOINT Neck
     {
      OFFSET 0.000000 14.453000 0.000000
      CHANNELS 3 Yrotation Xrotation Zrotation
      JOINT Head
      {
       OFFSET 0.000000 8.936500 -0.011300
       CHANNELS 3 Yrotation Xrotation Zrotation
       End Site
       {
        OFFSET 0.000000 17.073600 -0.006000
       }
      }
     }
     JOINT RightCollar
     {
      OFFSET -2.921100 9.558500 0.000000
      CHANNELS 3 Yrotation Xrotation Zrotation
      JOINT RightShoulder
      {
       OFFSET -13.519700 0.000000 0.000000
       CHANNELS 3 Yrotation Xrotation Zrotation
       JOINT RightElbow
       {
        OFFSET 0.000000 -29.696600 0.000000
        CHANNELS 3 Yrotation Xrotation Zrotation
        JOINT RightWrist
        {
         OFFSET 0.000000 -24.004700 0.000000
         CHANNELS 3 Yrotation Xrotation Zrotation
         End Site
         {
          OFFSET 0.000000 -17.728500 0.000000
         }
        }
       }
      }
     }
     JOINT LeftCollar
     {
      OFFSET 2.921100 9.558500 0.000000
      CHANNELS 3 Yrotation Xrotation Zrotation
      JOINT LeftShoulder
      {
       OFFSET 13.519700 0.000000 0.000000
       CHANNELS 3 Yrotation Xrotation Zrotation
       JOINT LeftElbow
       {
        OFFSET 0.000000 -29.696600 0.000000
        CHANNELS 3 Yrotation Xrotation Zrotation
        JOINT LeftWrist
        {
         OFFSET 0.000000 -24.004700 0.000000
         CHANNELS 3 Yrotation Xrotation Zrotation
         End Site
         {
          OFFSET 0.000000 -17.728500 0.000000
         }
        }
       }
      }
     }
    }
   }
  }
 }
 JOINT RightHip
 {
  OFFSET -7.771700 -0.012900 -0.001300
  CHANNELS 3 Yrotation Xrotation Zrotation
  JOINT RightKnee
  {
   OFFSET 0.000000 -40.869800 0.001200
   CHANNELS 3 Yrotation Xrotation Zrotation
   JOINT RightAnkle
   {
    OFFSET 0.000000 -39.717900 0.002100
    CHANNELS 3 Yrotation Xrotation Zrotation
    JOINT RightToe
    {
     OFFSET 0.000000 -4.965400 11.033500
     CHANNELS 3 Yrotation Xrotation Zrotation
     End Site
     {
      OFFSET 0.000000 -1.423100 5.872300
     }
    }
   }
  }
 }
 JOINT LeftHip
 {
  OFFSET 7.771700 -0.012900 -0.001300
  CHANNELS 3 Yrotation Xrotation Zrotation
  JOINT LeftKnee
  {
   OFFSET 0.000000 -40.869800 0.001200
   CHANNELS 3 Yrotation Xrotation Zrotation
   JOINT LeftAnkle
   {
    OFFSET 0.000000 -39.717900 0.002100
    CHANNELS 3 Yrotation Xrotation Zrotation
    JOINT LeftToe
    {
     OFFSET 0.000000 -4.965400 11.033500
     CHANNELS 3 Yrotation Xrotation Zrotation
     End Site
     {
      OFFSET 0.000000 -1.423100 5.872300
     }
    }
   }
  }
 }
}
MOTION
Frames: 8
Frame Time: 0.008333
0.000000 85.388000 0.000000 0.000000 -5.767877 0.000000 0.000000 11.653817 0.000000 0.000000 -5.885947 0.000000 0.000000 -0.000000 0.000000 0.000000 -0.000000 0.000000 0.000000 12.528835 0.000000 0.000000 0.711642 0.000000 0.000000 -0.000000 0.000000 0.000000 0.000000 -90.000000 0.000000 -2.309062 0.000000 0.000000 2.309062 0.000000 0.000000 -0.000000 0.000000 0.000000 -0.000000 90.000000 0.000000 -2.309062 0.000000 0.000000 2.309062 0.000000 0.000000 8.520406 0.000000 0.000000 1.905762 0.000000 -0.000000 -4.658285 0.000000 0.000000 -0.000000 0.000000 0.000000 8.520406 0.000000 0.000000 1.905762 0.000000 -0.000000 -4.658285 0.000000 0.000000 -0.000000 0.000000
-81.745361 57.578812 88.274323 174.619593 -30.848864 -0.937201 3.501643 20.319696 2.871134 0.360640 2.609129 0.367610 0.653444 4.305745 0.542353 2.884018 17.356388 2.711644 -5.570884 10.128912 -6.122316 -8.110822 -17.149049 -9.363820 2.443503 -3.410321 -0.865788 6.971147 -12.609074 -16.743856 143.620573 -72.990169 -114.027567 18.876533 -19.517953 -45.968675 -4.644286 -3.019260 -0.513466 8.897609 -3.348491 -1.699342 -143.100245 -79.639718 115.457484 -7.215898 -13.352671 33.051415 6.812818 -45.996793 -3.312617 -14.074547 68.319805 -15.956039 9.931238 26.221752 5.484457 -0.462368 -18.963867 3.434238 -7.489219 -41.770639 3.811770 28.866846 67.160960 26.908434 -14.582277 2.477578 -3.736993 0.039825 0.296474 0.025864
-81.742970 57.579555 88.269166 174.625901 -30.845781 -0.922001 3.467245 20.310426 2.870292 0.361033 2.601949 0.364773 0.624160 4.276519 0.570868 2.883722 17.369439 2.686995 -5.646731 10.103996 -6.217998 -8.157191 -17.161803 -9.494595 2.463405 -3.390849 -0.885580 6.984553 -12.607336 -16.766474 143.774348 -72.955082 -114.169207 18.877150 -19.523572 -45.986708 -4.699252 -3.080081 -0.509785 8.807101 -3.349111 -1.739064 -142.798790 -79.622070 115.142778 -7.230498 -13.350191 33.042044 6.814788 -45.999145 -3.324783 -14.058799 68.342218 -15.949458 9.904292 26.183951 5.463913 -0.458573 -18.944280 3.444846 -7.480824 -41.775064 3.791847 28.901104 67.158921 26.934631 -14.593504 2.479279 -3.730790 0.033445 0.291281 0.023163
-81.739188 57.581413 88.262139 174.627421 -30.849404 -0.907426 3.427250 20.292613 2.887111 0.373363 2.610563 0.343795 0.628325 4.281032 0.559494 2.876050 17.364120 2.689666 -5.719262 10.071521 -6.281095 -8.198669 -17.165234 -9.611124 2.457421 -3.407571 -0.866966 7.012532 -12.644847 -16.826873 143.871546 -72.975463 -114.237571 18.877112 -19.530181 -46.002057 -4.732070 -3.117910 -0.510164 8.673758 -3.391710 -1.764250 -142.466543 -79.603134 114.800091 -7.246505 -13.347321 33.032077 6.812503 -45.994507 -3.323677 -14.048575 68.366020 -15.953291 9.871938 26.142450 5.439982 -0.455581 -18.923442 3.458761 -7.468180 -41.770064 3.777279 28.907873 67.164175 26.935150 -14.598999 2.474571 -3.726296 0.030173 0.289062 0.021454
-81.735196 57.583212 88.255406 174.633052 -30.845260 -0.893150 3.403327 20.278967 2.886813 0.372784 2.610430 0.338543 0.628847 4.282044 0.555018 2.867062 17.358938 2.691956 -5.767187 10.057027 -6.328631 -8.253437 -17.169466 -9.719331 2.453420 -3.423463 -0.845885 7.038122 -12.681707 -16.889792 143.950245 -72.988669 -114.287338 18.874721 -19.536884 -46.012436 -4.753353 -3.143707 -0.515411 8.529406 -3.446842 -1.794455 -142.109175 -79.585595 114.433901 -7.261112 -13.342618 33.021292 6.814462 -45.994044 -3.331375 -14.042743 68.390460 -15.952602 9.829394 26.079278 5.391327 -0.450467 -18.883337 3.488302 -7.452282 -41.774286 3.753271 28.907024 67.167392 26.936494 -14.590551 2.477224 -3.723727 0.030145 0.283078 0.019877
-81.727538 57.585566 88.248710 174.640488 -30.839066 -0.898835 3.387719 20.263819 2.906369 0.376873 2.616057 0.322829 0.615631 4.264557 0.573089 2.853397 17.349869 2.696264 -5.805097 10.064959 -6.390056 -8.311476 -17.165951 -9.813531 2.441674 -3.446889 -0.822345 7.088626 -12.691821 -16.966762 143.997830 -72.998054 -114.308046 18.872664 -19.540352 -46.020239 -4.743140 -3.127719 -0.548266 8.361819 -3.528871 -1.828417 -141.715300 -79.570612 114.031201 -7.273537 -13.336946 33.016795 6.782455 -45.989026 -3.296330 -14.051172 68.390468 -15.978408 9.809143 26.041622 5.367999 -0.447592 -18.858687 3.502697 -7.455782 -41.779015 3.756876 28.903565 67.172442 26.937075 -14.585726 2.480184 -3.720058 0.024697 0.276429 0.015295
-81.721239 57.587826 88.242738 174.638836 -30.823749 -0.889101 3.381097 20.245438 2.904647 0.372145 2.606223 0.336490 0.611611 4.259842 0.574301 2.835790 17.332254 2.714104 -5.821797 10.089991 -6.454952 -8.396969 -17.159712 -9.901567 2.456389 -3.414515 -0.862356 7.119876 -12.826980 -17.043809 143.954007 -73.120276 -114.235198 18.872355 -19.540722 -46.023986 -4.766748 -3.143856 -0.581938 8.223215 -3.571626 -1.878933 -141.265827 -79.561354 113.576135 -7.283485 -13.331952 33.019553 6.784009 -45.994052 -3.294894 -14.060551 68.396419 -15.990267 9.793820 25.993188 5.330044 -0.456551 -18.825029 3.530635 -7.440233 -41.789623 3.745360 28.879288 67.172067 26.920796 -14.581216 2.481875 -3.721966 0.027162 0.274570 0.014331
-81.714719 57.591715 88.234836 174.647279 -30.819003 -0.880764 3.361261 20.238916 2.911033 0.365601 2.599323 0.351310 0.612752 4.258693 0.555608 2.834643 17.334917 2.706197 -5.845059 10.093061 -6.480707 -8.489582 -17.145207 -9.980716 2.443201 -3.435820 -0.843753 7.150646 -12.826188 -17.090442 143.975002 -73.125979 -114.247281 18.911180 -19.574244 -46.043670 -4.809918 -3.186446 -0.576527 8.087619 -3.612856 -1.937457 -140.771482 -79.563500 113.077721 -7.292107 -13.330241 33.026367 6.779752 -45.987636 -3.297468 -14.052749 68.415493 -15.982158 9.757899 25.924855 5.278582 -0.459545 -18.781217 3.562141 -7.434072 -41.791088 3.729777 28.878276 67.171534 26.923033 -14.584346 2.485783 -3.720987 0.027070 0.271938 0.010946
